<mxfile host="app.diagrams.net" agent="Mozilla/5.0 (Windows NT 10.0; Win64; x64) AppleWebKit/537.36 (KHTML, like Gecko) Chrome/134.0.0.0 Safari/537.36 Edg/134.0.0.0" version="26.2.5">
  <diagram id="C5RBs43oDa-KdzZeNtuy" name="Page-1">
    <mxGraphModel dx="1853" dy="1702" grid="1" gridSize="10" guides="1" tooltips="1" connect="1" arrows="1" fold="1" page="1" pageScale="1" pageWidth="827" pageHeight="1169" background="light-dark(#FFFFFF,#000000)" math="0" shadow="0">
      <root>
        <mxCell id="WIyWlLk6GJQsqaUBKTNV-0" />
        <mxCell id="WIyWlLk6GJQsqaUBKTNV-1" parent="WIyWlLk6GJQsqaUBKTNV-0" />
        <mxCell id="gX2V6tMiRpIjMi5Zaf3G-14" value="" style="edgeStyle=orthogonalEdgeStyle;rounded=1;orthogonalLoop=1;jettySize=auto;html=1;" parent="WIyWlLk6GJQsqaUBKTNV-1" source="gX2V6tMiRpIjMi5Zaf3G-0" target="gX2V6tMiRpIjMi5Zaf3G-11" edge="1">
          <mxGeometry relative="1" as="geometry" />
        </mxCell>
        <mxCell id="gX2V6tMiRpIjMi5Zaf3G-0" value="start Ipv4 checker" style="ellipse;whiteSpace=wrap;html=1;rounded=1;" parent="WIyWlLk6GJQsqaUBKTNV-1" vertex="1">
          <mxGeometry x="-508" y="-290" width="120" height="80" as="geometry" />
        </mxCell>
        <mxCell id="gX2V6tMiRpIjMi5Zaf3G-17" value="" style="edgeStyle=orthogonalEdgeStyle;rounded=1;orthogonalLoop=1;jettySize=auto;html=1;" parent="WIyWlLk6GJQsqaUBKTNV-1" source="gX2V6tMiRpIjMi5Zaf3G-5" target="gX2V6tMiRpIjMi5Zaf3G-6" edge="1">
          <mxGeometry relative="1" as="geometry" />
        </mxCell>
        <mxCell id="gX2V6tMiRpIjMi5Zaf3G-5" value="&lt;font style=&quot;font-size: 12px;&quot;&gt;split the string with &#39;.&#39;&amp;nbsp;&lt;/font&gt;" style="shape=parallelogram;perimeter=parallelogramPerimeter;whiteSpace=wrap;html=1;fixedSize=1;rounded=1;" parent="WIyWlLk6GJQsqaUBKTNV-1" vertex="1">
          <mxGeometry x="-538" y="-30" width="180" height="70" as="geometry" />
        </mxCell>
        <mxCell id="gX2V6tMiRpIjMi5Zaf3G-18" value="" style="edgeStyle=orthogonalEdgeStyle;rounded=1;orthogonalLoop=1;jettySize=auto;html=1;" parent="WIyWlLk6GJQsqaUBKTNV-1" source="gX2V6tMiRpIjMi5Zaf3G-6" target="gX2V6tMiRpIjMi5Zaf3G-7" edge="1">
          <mxGeometry relative="1" as="geometry" />
        </mxCell>
        <mxCell id="gX2V6tMiRpIjMi5Zaf3G-39" style="edgeStyle=orthogonalEdgeStyle;rounded=1;orthogonalLoop=1;jettySize=auto;html=1;" parent="WIyWlLk6GJQsqaUBKTNV-1" source="gX2V6tMiRpIjMi5Zaf3G-6" edge="1">
          <mxGeometry relative="1" as="geometry">
            <mxPoint x="-110" y="110" as="targetPoint" />
          </mxGeometry>
        </mxCell>
        <mxCell id="gX2V6tMiRpIjMi5Zaf3G-6" value="are we get 4 segments ?!" style="shape=parallelogram;perimeter=parallelogramPerimeter;whiteSpace=wrap;html=1;fixedSize=1;rounded=1;" parent="WIyWlLk6GJQsqaUBKTNV-1" vertex="1">
          <mxGeometry x="-547" y="80" width="200" height="60" as="geometry" />
        </mxCell>
        <mxCell id="gX2V6tMiRpIjMi5Zaf3G-19" value="" style="edgeStyle=orthogonalEdgeStyle;rounded=1;orthogonalLoop=1;jettySize=auto;html=1;" parent="WIyWlLk6GJQsqaUBKTNV-1" source="gX2V6tMiRpIjMi5Zaf3G-7" target="gX2V6tMiRpIjMi5Zaf3G-8" edge="1">
          <mxGeometry relative="1" as="geometry" />
        </mxCell>
        <mxCell id="gX2V6tMiRpIjMi5Zaf3G-7" value="loop for each segment" style="shape=parallelogram;perimeter=parallelogramPerimeter;whiteSpace=wrap;html=1;fixedSize=1;rounded=1;" parent="WIyWlLk6GJQsqaUBKTNV-1" vertex="1">
          <mxGeometry x="-543" y="200" width="190" height="60" as="geometry" />
        </mxCell>
        <mxCell id="gX2V6tMiRpIjMi5Zaf3G-29" value="" style="edgeStyle=orthogonalEdgeStyle;rounded=1;orthogonalLoop=1;jettySize=auto;html=1;" parent="WIyWlLk6GJQsqaUBKTNV-1" source="gX2V6tMiRpIjMi5Zaf3G-8" target="gX2V6tMiRpIjMi5Zaf3G-10" edge="1">
          <mxGeometry relative="1" as="geometry" />
        </mxCell>
        <mxCell id="gX2V6tMiRpIjMi5Zaf3G-41" style="edgeStyle=orthogonalEdgeStyle;rounded=1;orthogonalLoop=1;jettySize=auto;html=1;" parent="WIyWlLk6GJQsqaUBKTNV-1" source="gX2V6tMiRpIjMi5Zaf3G-8" edge="1">
          <mxGeometry relative="1" as="geometry">
            <mxPoint x="-110" y="335" as="targetPoint" />
          </mxGeometry>
        </mxCell>
        <mxCell id="gX2V6tMiRpIjMi5Zaf3G-8" value="does segment have any character or letters ?!" style="shape=parallelogram;perimeter=parallelogramPerimeter;whiteSpace=wrap;html=1;fixedSize=1;rounded=1;" parent="WIyWlLk6GJQsqaUBKTNV-1" vertex="1">
          <mxGeometry x="-548" y="310" width="200" height="50" as="geometry" />
        </mxCell>
        <mxCell id="gX2V6tMiRpIjMi5Zaf3G-21" value="" style="edgeStyle=orthogonalEdgeStyle;rounded=1;orthogonalLoop=1;jettySize=auto;html=1;" parent="WIyWlLk6GJQsqaUBKTNV-1" source="gX2V6tMiRpIjMi5Zaf3G-10" target="gX2V6tMiRpIjMi5Zaf3G-12" edge="1">
          <mxGeometry relative="1" as="geometry" />
        </mxCell>
        <mxCell id="gX2V6tMiRpIjMi5Zaf3G-43" style="edgeStyle=orthogonalEdgeStyle;rounded=1;orthogonalLoop=1;jettySize=auto;html=1;" parent="WIyWlLk6GJQsqaUBKTNV-1" source="gX2V6tMiRpIjMi5Zaf3G-10" edge="1">
          <mxGeometry relative="1" as="geometry">
            <mxPoint x="-110" y="455" as="targetPoint" />
          </mxGeometry>
        </mxCell>
        <mxCell id="gX2V6tMiRpIjMi5Zaf3G-10" value="is segment value is between numbers 0 .. 255" style="shape=parallelogram;perimeter=parallelogramPerimeter;whiteSpace=wrap;html=1;fixedSize=1;rounded=1;" parent="WIyWlLk6GJQsqaUBKTNV-1" vertex="1">
          <mxGeometry x="-557" y="430" width="220" height="50" as="geometry" />
        </mxCell>
        <mxCell id="gX2V6tMiRpIjMi5Zaf3G-16" value="" style="edgeStyle=orthogonalEdgeStyle;rounded=1;orthogonalLoop=1;jettySize=auto;html=1;" parent="WIyWlLk6GJQsqaUBKTNV-1" source="gX2V6tMiRpIjMi5Zaf3G-11" target="gX2V6tMiRpIjMi5Zaf3G-5" edge="1">
          <mxGeometry relative="1" as="geometry" />
        </mxCell>
        <mxCell id="gX2V6tMiRpIjMi5Zaf3G-35" style="edgeStyle=orthogonalEdgeStyle;rounded=1;orthogonalLoop=1;jettySize=auto;html=1;entryX=0.5;entryY=0;entryDx=0;entryDy=0;" parent="WIyWlLk6GJQsqaUBKTNV-1" source="gX2V6tMiRpIjMi5Zaf3G-11" target="gX2V6tMiRpIjMi5Zaf3G-34" edge="1">
          <mxGeometry relative="1" as="geometry" />
        </mxCell>
        <mxCell id="gX2V6tMiRpIjMi5Zaf3G-11" value="is input address empty ?!" style="shape=parallelogram;perimeter=parallelogramPerimeter;whiteSpace=wrap;html=1;fixedSize=1;rounded=1;" parent="WIyWlLk6GJQsqaUBKTNV-1" vertex="1">
          <mxGeometry x="-516" y="-160" width="138" height="60" as="geometry" />
        </mxCell>
        <mxCell id="gX2V6tMiRpIjMi5Zaf3G-32" value="" style="edgeStyle=orthogonalEdgeStyle;rounded=1;orthogonalLoop=1;jettySize=auto;html=1;" parent="WIyWlLk6GJQsqaUBKTNV-1" source="gX2V6tMiRpIjMi5Zaf3G-12" target="gX2V6tMiRpIjMi5Zaf3G-13" edge="1">
          <mxGeometry relative="1" as="geometry" />
        </mxCell>
        <mxCell id="gX2V6tMiRpIjMi5Zaf3G-45" style="edgeStyle=orthogonalEdgeStyle;rounded=1;orthogonalLoop=1;jettySize=auto;html=1;" parent="WIyWlLk6GJQsqaUBKTNV-1" source="gX2V6tMiRpIjMi5Zaf3G-12" edge="1">
          <mxGeometry relative="1" as="geometry">
            <mxPoint x="-110" y="570" as="targetPoint" />
          </mxGeometry>
        </mxCell>
        <mxCell id="gX2V6tMiRpIjMi5Zaf3G-12" value="does segment have leading zeros (01)" style="shape=parallelogram;perimeter=parallelogramPerimeter;whiteSpace=wrap;html=1;fixedSize=1;rounded=1;" parent="WIyWlLk6GJQsqaUBKTNV-1" vertex="1">
          <mxGeometry x="-553" y="540" width="210" height="60" as="geometry" />
        </mxCell>
        <mxCell id="gX2V6tMiRpIjMi5Zaf3G-13" value="True" style="ellipse;whiteSpace=wrap;html=1;rounded=1;" parent="WIyWlLk6GJQsqaUBKTNV-1" vertex="1">
          <mxGeometry x="-508" y="660" width="120" height="80" as="geometry" />
        </mxCell>
        <mxCell id="gX2V6tMiRpIjMi5Zaf3G-25" value="No" style="text;strokeColor=none;align=center;fillColor=none;html=1;verticalAlign=middle;whiteSpace=wrap;rounded=1;" parent="WIyWlLk6GJQsqaUBKTNV-1" vertex="1">
          <mxGeometry x="-518" y="-80" width="60" height="30" as="geometry" />
        </mxCell>
        <mxCell id="gX2V6tMiRpIjMi5Zaf3G-27" value="Yes" style="text;strokeColor=none;align=center;fillColor=none;html=1;verticalAlign=middle;whiteSpace=wrap;rounded=1;" parent="WIyWlLk6GJQsqaUBKTNV-1" vertex="1">
          <mxGeometry x="-526" y="160" width="60" height="30" as="geometry" />
        </mxCell>
        <mxCell id="gX2V6tMiRpIjMi5Zaf3G-30" value="No" style="text;strokeColor=none;align=center;fillColor=none;html=1;verticalAlign=middle;whiteSpace=wrap;rounded=1;" parent="WIyWlLk6GJQsqaUBKTNV-1" vertex="1">
          <mxGeometry x="-526" y="380" width="60" height="30" as="geometry" />
        </mxCell>
        <mxCell id="gX2V6tMiRpIjMi5Zaf3G-31" value="Yes" style="text;strokeColor=none;align=center;fillColor=none;html=1;verticalAlign=middle;whiteSpace=wrap;rounded=1;" parent="WIyWlLk6GJQsqaUBKTNV-1" vertex="1">
          <mxGeometry x="-526" y="500" width="60" height="30" as="geometry" />
        </mxCell>
        <mxCell id="gX2V6tMiRpIjMi5Zaf3G-33" value="No" style="text;strokeColor=none;align=center;fillColor=none;html=1;verticalAlign=middle;whiteSpace=wrap;rounded=1;" parent="WIyWlLk6GJQsqaUBKTNV-1" vertex="1">
          <mxGeometry x="-526" y="620" width="60" height="30" as="geometry" />
        </mxCell>
        <mxCell id="gX2V6tMiRpIjMi5Zaf3G-34" value="False" style="ellipse;whiteSpace=wrap;html=1;rounded=1;" parent="WIyWlLk6GJQsqaUBKTNV-1" vertex="1">
          <mxGeometry x="-170" y="660" width="120" height="80" as="geometry" />
        </mxCell>
        <mxCell id="gX2V6tMiRpIjMi5Zaf3G-36" value="Yes" style="text;strokeColor=none;align=center;fillColor=none;html=1;verticalAlign=middle;whiteSpace=wrap;rounded=1;" parent="WIyWlLk6GJQsqaUBKTNV-1" vertex="1">
          <mxGeometry x="-280" y="-170" width="60" height="30" as="geometry" />
        </mxCell>
        <mxCell id="gX2V6tMiRpIjMi5Zaf3G-40" value="No" style="text;strokeColor=none;align=center;fillColor=none;html=1;verticalAlign=middle;whiteSpace=wrap;rounded=1;" parent="WIyWlLk6GJQsqaUBKTNV-1" vertex="1">
          <mxGeometry x="-260" y="70" width="60" height="30" as="geometry" />
        </mxCell>
        <mxCell id="gX2V6tMiRpIjMi5Zaf3G-42" value="Yes" style="text;strokeColor=none;align=center;fillColor=none;html=1;verticalAlign=middle;whiteSpace=wrap;rounded=1;" parent="WIyWlLk6GJQsqaUBKTNV-1" vertex="1">
          <mxGeometry x="-260" y="290" width="60" height="30" as="geometry" />
        </mxCell>
        <mxCell id="gX2V6tMiRpIjMi5Zaf3G-44" value="No" style="text;strokeColor=none;align=center;fillColor=none;html=1;verticalAlign=middle;whiteSpace=wrap;rounded=1;" parent="WIyWlLk6GJQsqaUBKTNV-1" vertex="1">
          <mxGeometry x="-260" y="420" width="60" height="30" as="geometry" />
        </mxCell>
        <mxCell id="gX2V6tMiRpIjMi5Zaf3G-46" value="Yes" style="text;strokeColor=none;align=center;fillColor=none;html=1;verticalAlign=middle;whiteSpace=wrap;rounded=1;" parent="WIyWlLk6GJQsqaUBKTNV-1" vertex="1">
          <mxGeometry x="-260" y="530" width="60" height="30" as="geometry" />
        </mxCell>
      </root>
    </mxGraphModel>
  </diagram>
</mxfile>
